<?xml version="1.0" standalone="no"?>
<!DOCTYPE svg PUBLIC "-//W3C//DTD SVG 20010904//EN"
 "http://www.w3.org/TR/2001/REC-SVG-20010904/DTD/svg10.dtd">
<svg version="1.0" xmlns="http://www.w3.org/2000/svg"
 width="692.000000pt" height="691.000000pt" viewBox="0 0 692.000000 691.000000"
 preserveAspectRatio="xMidYMid meet">

<g transform="translate(0.000000,691.000000) scale(0.100000,-0.100000)"
fill="#000000" stroke="none">
<path d="M0 3455 l0 -3455 3460 0 3460 0 0 3455 0 3455 -3460 0 -3460 0 0
-3455z m6447 3243 c-39 -789 -383 -1521 -967 -2060 -457 -421 -1032 -680
-1685 -759 -141 -18 -558 -18 -685 -1 -528 71 -936 217 -1324 474 -198 132
-326 239 -501 420 -477 492 -759 1114 -825 1823 -5 61 -10 138 -10 173 l0 62
3002 0 3001 0 -6 -132z m-6331 -688 c157 -586 495 -1152 947 -1586 540 -520
1215 -847 1957 -949 163 -23 525 -31 701 -16 1488 126 2747 1213 3095 2671
l22 95 1 -1447 1 -1448 -3390 0 -3390 0 1 1448 c1 899 4 1432 10 1407 5 -22
26 -101 45 -175z m6724 -4535 l0 -1425 -3390 0 -3390 0 0 1425 0 1425 3390 0
3390 0 0 -1425z"/>
</g>
</svg>
