<?xml version="1.0" encoding="UTF-8"?>
<svg xmlns="http://www.w3.org/2000/svg" xmlns:xlink="http://www.w3.org/1999/xlink" width="64px" height="64px" viewBox="0 0 64 63" version="1.1">
<g id="surface1">
<path style=" stroke:none;fill-rule:nonzero;fill:rgb(0%,0%,0%);fill-opacity:1;" d="M 0 31.492188 L 0 62.980469 L 64 62.980469 L 64 0 L 0 0 Z M 59.625 1.933594 C 59.265625 9.125 56.082031 15.796875 50.683594 20.707031 C 46.457031 24.546875 41.136719 26.90625 35.097656 27.625 C 33.792969 27.789062 29.9375 27.789062 28.761719 27.636719 C 23.878906 26.988281 20.105469 25.65625 16.519531 23.316406 C 14.6875 22.113281 13.503906 21.136719 11.882812 19.488281 C 7.472656 15.003906 4.863281 9.332031 4.253906 2.871094 C 4.207031 2.316406 4.160156 1.613281 4.160156 1.292969 L 4.160156 0.730469 L 59.679688 0.730469 Z M 1.074219 8.203125 C 2.523438 13.542969 5.652344 18.703125 9.832031 22.660156 C 14.824219 27.398438 21.066406 30.378906 27.929688 31.308594 C 29.4375 31.519531 32.785156 31.589844 34.414062 31.453125 C 48.175781 30.304688 59.820312 20.398438 63.039062 7.109375 L 63.242188 6.242188 L 63.25 19.433594 L 63.261719 32.628906 L 0.554688 32.628906 L 0.5625 19.433594 C 0.574219 11.238281 0.601562 6.378906 0.65625 6.609375 C 0.703125 6.808594 0.898438 7.527344 1.074219 8.203125 Z M 63.261719 49.539062 L 63.261719 62.527344 L 0.554688 62.527344 L 0.554688 36.550781 L 63.261719 36.550781 Z M 63.261719 49.539062 "/>
</g>
</svg>
